<svg width="103" height="27" viewBox="0 0 103 27" fill="none" xmlns="http://www.w3.org/2000/svg">
<path d="M13.1022 6.71302C12.3066 5.96716 11.2624 5.46993 10.0691 5.46993C9.17403 5.46993 7.88122 5.99203 7.73204 7.03622C7.55801 8.13015 8.80111 8.5528 9.59669 8.82628L10.7901 9.19921C13.2762 9.96993 15.0912 11.2876 14.5939 14.3208C14.2956 16.1854 13.5497 18.0998 11.8591 19.3677C10.1934 20.6108 8.1547 21.1329 6.26519 21.1329C3.90331 21.1329 1.71547 20.3373 0 18.9948L2.70994 15.0666C3.77901 16.1357 5.07182 17.0058 6.73757 17.0058C7.88122 17.0058 9.1989 16.434 9.39779 15.1163C9.62155 13.7489 7.78177 13.2766 6.78729 12.9782C3.85359 12.108 1.96409 11.3125 2.56077 7.68263C3.15746 3.87877 6.26519 1.39258 10.0193 1.39258C11.9088 1.39258 14.1215 1.98926 15.6381 2.93401L13.1022 6.71302Z" fill="#004CDE"/>
<path d="M24.1189 9.19921L22.9256 8.82628C22.13 8.5528 20.8869 8.13015 21.0609 7.03622C21.2101 5.99203 22.5029 5.46993 23.3979 5.46993C24.5913 5.46993 25.6355 5.96716 26.4311 6.71302L28.967 2.93401C27.4504 1.98926 25.2377 1.39258 23.3482 1.39258C19.5941 1.39258 16.4863 3.87877 15.8896 7.68263C15.293 11.3125 17.1825 12.108 20.1162 12.9782C21.1106 13.2766 22.9504 13.7489 22.7267 15.1163C22.5278 16.434 21.2101 17.0058 20.0664 17.0058C18.4007 17.0058 17.1079 16.1357 16.0388 15.0666L16.0029 15.1186C15.7356 16.6733 15.1496 18.2498 13.9575 19.4476C15.5647 20.514 17.5119 21.1329 19.5941 21.1329C21.4836 21.1329 23.5222 20.6108 25.188 19.3677C26.8786 18.0998 27.6244 16.1854 27.9228 14.3208C28.42 11.2876 26.6051 9.96993 24.1189 9.19921Z" fill="#004CDE"/>
<path d="M33.2221 20.6351H28.6973L30.7111 7.88097H35.2359L33.2221 20.6351ZM36.2801 2.98318C36.0812 4.37544 34.7387 5.51909 33.3464 5.51909C31.9542 5.51909 31.0094 4.37544 31.2083 2.98318C31.4321 1.59091 32.7746 0.447266 34.1669 0.447266C35.5591 0.447266 36.5039 1.59091 36.2801 2.98318Z" fill="#004CDE"/>
<path d="M42.4951 9.4728H42.5449C43.8377 8.05567 45.2548 7.45898 46.8957 7.45898C48.7355 7.45898 50.2023 8.20484 50.8487 9.89545C51.9924 8.30429 53.8322 7.45898 55.5725 7.45898C58.8045 7.45898 59.5752 9.57224 59.1277 12.5059L57.8349 20.6358H53.3101L54.2797 14.5446C54.4786 13.2269 54.8763 11.064 52.962 11.064C50.8736 11.064 50.4758 13.028 50.252 14.5446L49.2824 20.6358H44.7576L45.7272 14.5446C45.9509 13.1275 46.299 10.9645 44.2852 10.9645C42.2714 10.9645 41.9233 13.1275 41.6996 14.5446L40.7299 20.6358H36.2051L38.2189 7.88164H42.7438L42.4951 9.4728Z" fill="#004CDE"/>
<path d="M66.9593 9.32363H67.009C68.0283 8.05567 69.6692 7.45898 71.1609 7.45898C74.9648 7.45898 77.1029 10.6413 76.5062 14.296C75.9344 17.9756 72.8267 21.0584 69.0477 21.0584C67.5808 21.0584 66.1637 20.5363 65.3681 19.4175L64.1499 27.0004H59.625L62.6581 7.88164H67.183L66.9593 9.32363ZM66.0394 14.2711C65.7659 15.8872 66.636 17.1303 68.4758 17.1303C70.3156 17.1303 71.5836 15.8872 71.857 14.2711C72.1057 12.7048 71.2355 11.3872 69.3957 11.3872C67.5559 11.3872 66.288 12.7048 66.0394 14.2711Z" fill="#004CDE"/>
<path d="M82.2744 20.6354H77.7495L81.0064 0H85.5313L82.2744 20.6354Z" fill="#004CDE"/>
<path d="M85.4062 7.88086H90.6272L93.014 14.4195L97.3648 7.88086H102.511L89.2598 26.9996H84.188L89.8316 18.8947L85.4062 7.88086Z" fill="#004CDE"/>
</svg>
