<svg width="24" height="24" viewBox="0 0 24 24" fill="none" xmlns="http://www.w3.org/2000/svg">
<path fill-rule="evenodd" clip-rule="evenodd" d="M5.73438 2.79688C4.07752 2.79688 2.73438 4.14002 2.73438 5.79687V13.3802C2.73438 15.0371 4.07752 16.3802 5.73437 16.3802H13.3177C14.9746 16.3802 16.3177 15.0371 16.3177 13.3802V5.79688C16.3177 4.14002 14.9746 2.79688 13.3177 2.79688H5.73438ZM4.73438 5.79687C4.73438 5.24459 5.18209 4.79688 5.73438 4.79688H13.3177C13.87 4.79688 14.3177 5.24459 14.3177 5.79688V13.3802C14.3177 13.9325 13.87 14.3802 13.3177 14.3802H5.73437C5.18209 14.3802 4.73438 13.9325 4.73438 13.3802V5.79687Z" fill="#2E2E33"/>
<path d="M17.8594 7.61979C17.3071 7.61979 16.8594 8.0675 16.8594 8.61979C16.8594 9.17207 17.3071 9.61979 17.8594 9.61979H18.2656C18.8179 9.61979 19.2656 10.0675 19.2656 10.6198V18.2031C19.2656 18.7554 18.8179 19.2031 18.2656 19.2031H10.6823C10.13 19.2031 9.68229 18.7554 9.68229 18.2031V17.8906C9.68229 17.3383 9.23457 16.8906 8.68229 16.8906C8.13 16.8906 7.68229 17.3383 7.68229 17.8906V18.2031C7.68229 19.86 9.02543 21.2031 10.6823 21.2031H18.2656C19.9225 21.2031 21.2656 19.86 21.2656 18.2031V10.6198C21.2656 8.96293 19.9225 7.61979 18.2656 7.61979H17.8594Z" fill="#2E2E33"/>
</svg>
