<svg width="24" height="24" viewBox="0 0 24 24" fill="none" xmlns="http://www.w3.org/2000/svg">
<path d="M3 3.9914C3 3.44386 3.44386 3 3.9914 3H10.1086C10.6561 3 11.1 3.44386 11.1 3.9914V10.1086C11.1 10.6561 10.6561 11.1 10.1086 11.1H3.9914C3.44386 11.1 3 10.6561 3 10.1086V3.9914Z" fill="#8B8B91"/>
<path d="M3 13.8914C3 13.3439 3.44386 12.9 3.9914 12.9H10.1086C10.6561 12.9 11.1 13.3439 11.1 13.8914V20.0086C11.1 20.5561 10.6561 21 10.1086 21H3.9914C3.44386 21 3 20.5561 3 20.0086V13.8914Z" fill="#8B8B91"/>
<path d="M12.9 3.9914C12.9 3.44386 13.3439 3 13.8914 3H20.0086C20.5561 3 21 3.44386 21 3.9914V10.1086C21 10.6561 20.5561 11.1 20.0086 11.1H13.8914C13.3439 11.1 12.9 10.6561 12.9 10.1086V3.9914Z" fill="#8B8B91"/>
<path d="M12.9 13.8914C12.9 13.3439 13.3439 12.9 13.8914 12.9H20.0086C20.5561 12.9 21 13.3439 21 13.8914V20.0086C21 20.5561 20.5561 21 20.0086 21H13.8914C13.3439 21 12.9 20.5561 12.9 20.0086V13.8914Z" fill="#8B8B91"/>
</svg>
