<svg width="24" height="24" viewBox="0 0 24 24" fill="none" xmlns="http://www.w3.org/2000/svg">
<path d="M5.10557 6.71092C4.428 7.0497 4 7.74223 4 8.49977V18.2637C4 19.3683 4.89543 20.2637 6 20.2637L9 20.2637C9.55229 20.2637 10 19.816 10 19.2637V13.2637C10 12.7114 10.4477 12.2637 11 12.2637H13C13.5523 12.2637 14 12.7114 14 13.2637V19.2637C14 19.816 14.4477 20.2637 15 20.2637L18 20.2637C19.1046 20.2637 20 19.3683 20 18.2637V8.49977C20 7.74223 19.572 7.0497 18.8944 6.71092L13.7889 4.15813C12.6627 3.59508 11.3373 3.59508 10.2111 4.15813L5.10557 6.71092Z" fill="#8B8B91"/>
</svg>
